<svg width="1024" height="1024" viewBox="0 0 1024 1024" fill="none" xmlns="http://www.w3.org/2000/svg">
<g id="social/i_dont_understand">
<g id="i dont understand">
<path id="Vector" d="M310.675 97.1259C332.085 110.396 345.033 131.994 349.521 161.921C353.454 188.116 347.859 210.144 332.735 228.005C317.611 245.867 295.848 257.222 267.446 262.071L270.011 293.909L195.353 305.119L179.868 219.624L210.959 214.964C230.53 212.026 245.161 207.551 254.85 201.538C264.54 195.525 268.521 186.759 266.796 175.239C265.623 167.477 262.617 161.677 257.776 157.839C252.936 154.002 246.915 152.621 239.714 153.697C231.686 154.909 225.927 158.201 222.435 163.571C218.942 168.942 217.819 175.661 219.063 183.729L139.191 195.71C135.912 179.076 137.223 161.863 142.984 145.918C148.716 130.208 159.004 116.894 173.847 105.976C188.69 95.0587 207.908 87.8338 231.502 84.3016C262.85 79.5813 289.241 83.8561 310.675 97.1259ZM213.343 412.108C203.052 405.269 196.955 395.515 195.052 382.847C193.149 370.18 196.104 358.993 203.915 349.288C211.734 339.598 223.125 333.626 238.089 331.37C252.763 329.17 265.262 331.558 275.586 338.535C285.909 345.511 292.019 355.336 293.913 368.012C294.909 373.851 294.626 379.837 293.083 385.556C291.541 391.276 288.775 396.592 284.978 401.138C277.159 410.844 265.921 416.796 251.262 418.996C236.282 421.252 223.643 418.956 213.343 412.108Z" fill="#231F20"/>
<path id="Vector_2" d="M932.8 627.784C942.786 642.74 944.817 660.597 938.893 681.357C933.699 699.54 923.548 712.195 908.439 719.324C893.331 726.452 875.839 727.4 855.963 722.166L848.22 743.6L796.441 728.8L811.601 668.677L833.168 674.83C846.751 678.708 857.588 680.125 865.68 679.081C873.772 678.037 878.946 673.522 881.202 665.534C882.743 660.148 882.51 655.492 880.503 651.566C878.496 647.64 874.992 644.967 869.991 643.546C864.371 641.941 859.659 642.374 855.854 644.847C852.049 647.319 849.34 651.353 847.726 656.949L792.335 641.114C795.099 629.352 801.01 618.563 809.434 609.902C817.815 601.377 828.436 595.758 841.296 593.044C854.156 590.331 868.779 591.334 885.163 596.055C906.934 602.26 922.813 612.836 932.8 627.784ZM776.476 803.59C774.187 800.003 772.712 795.957 772.154 791.738C771.597 787.519 771.971 783.229 773.249 779.17C774.32 775.034 776.274 771.179 778.976 767.87C781.678 764.561 785.065 761.876 788.903 760C796.851 755.986 806.014 755.472 816.394 758.459C826.581 761.365 833.995 766.611 838.635 774.197C840.908 777.819 842.37 781.889 842.921 786.13C843.472 790.37 843.098 794.68 841.826 798.762C840.735 802.853 838.771 806.659 836.069 809.919C833.366 813.178 829.99 815.813 826.172 817.643C818.224 821.657 809.157 822.199 798.97 819.268C788.646 816.338 781.148 811.128 776.476 803.639V803.59Z" fill="#231F20"/>
<path id="Vector_3" d="M923.879 131.012C929.17 138.935 930.245 148.392 927.107 159.381C924.361 169.015 918.987 175.714 910.983 179.479C902.979 183.244 893.719 183.745 883.203 180.984L879.097 192.327L851.666 184.5L859.77 152.662L871.186 155.926C878.411 157.973 884.118 158.731 888.381 158.177C890.346 158.017 892.207 157.227 893.689 155.926C895.17 154.624 896.193 152.88 896.605 150.952C897.452 148.534 897.318 145.88 896.232 143.559C895.66 142.496 894.868 141.566 893.909 140.833C892.95 140.1 891.845 139.58 890.669 139.308C889.446 138.866 888.141 138.699 886.846 138.82C885.551 138.94 884.299 139.346 883.179 140.007C881 141.531 879.464 143.809 878.868 146.401L849.523 137.972C851 131.781 854.125 126.106 858.566 121.547C863.163 116.951 869.037 113.846 875.424 112.636C882.24 111.215 889.982 111.741 898.652 114.214C910.188 117.505 918.597 123.104 923.879 131.012ZM841.13 224.117C839.914 222.218 839.13 220.076 838.832 217.842C838.534 215.607 838.731 213.334 839.408 211.184C839.985 209.002 841.028 206.97 842.464 205.228C843.9 203.486 845.696 202.076 847.729 201.093C851.935 198.99 856.788 198.717 862.287 200.275C867.666 201.816 871.587 204.597 874.052 208.619C875.256 210.536 876.031 212.691 876.322 214.937C876.613 217.182 876.414 219.463 875.737 221.624C875.167 223.786 874.135 225.798 872.71 227.522C871.286 229.246 869.505 230.639 867.489 231.607C863.274 233.726 858.458 234.015 853.039 232.474C847.62 230.932 843.651 228.147 841.13 224.117Z" fill="#231F20"/>
<path id="Vector_4" d="M303.62 807.637L275.142 868.663C308.858 894.468 343.778 925.258 368.078 910.182L372.895 815.801L303.62 807.637Z" fill="#FFEEC3"/>
<path id="Vector_5" d="M722.23 282.829C722.23 282.829 671.921 278.964 659.084 270.932C626.572 255.013 626.572 206.438 626.572 206.438C609.654 209.533 593.94 208.846 582.019 196.022C582.019 196.022 621.382 175.479 634.05 175.082C646.718 174.684 680.049 171.012 696.088 184.053C712.127 197.094 757.139 239.444 757.139 239.444C747.782 260.215 736.367 275.4 722.23 282.829Z" fill="#FFEEC3"/>
<path id="Vector_6" d="M298.802 802.64L271.745 868.664C188.839 813.104 125.091 751.283 97.9492 677.481C110.436 632.241 222.471 538.883 351.761 437.192C422.24 402.741 520.968 393.144 674.028 431.4L843.585 430.473L722.231 282.831L759.824 242.035C759.824 242.035 948.045 416.541 951.814 440.046C955.583 463.551 956.956 488.922 920.169 505.901C883.382 522.879 681.325 537.149 681.325 537.149L703.47 935.145H365.199C365.199 935.145 379.769 790.647 376.036 739.181C372.304 687.716 354.482 577.078 354.482 577.078L195.161 692.388L298.802 802.64Z" fill="#A9D7F3"/>
<path id="Vector_7" d="M480.037 406.724C480.037 406.724 462.721 483.79 539.811 474.723C635.421 463.428 589.001 425.702 589.001 425.702C589.001 425.702 629.436 378.968 640.129 344.385C650.822 309.802 681.299 229.81 610.109 199.369C538.92 168.928 499.568 232.459 487.683 277.314C475.798 322.168 480.037 406.724 480.037 406.724Z" fill="#FFEEC3"/>
<path id="Vector_8" d="M654.739 279.579C654.104 294.063 651.677 308.414 647.514 322.302C635.834 360.136 619.397 396.574 603.43 412.613C587.981 428.183 554.132 456.421 522.379 444.608C493.214 433.77 480.33 405.509 477.62 373.635C474.911 341.761 479.655 295.654 493.9 258.361C506.785 224.645 535.492 186.413 583.321 192.133" stroke="#231F20" stroke-width="20.4834" stroke-miterlimit="10" stroke-linecap="round"/>
<path id="Vector_9" d="M372.932 819.546C354.424 810.623 322.598 807.637 303.621 807.637L193.766 693.411L370.776 565.253" stroke="#231F20" stroke-width="20.4834" stroke-miterlimit="10" stroke-linecap="round"/>
<path id="Vector_10" d="M480.04 406.724C480.04 406.724 375.965 417.345 346.379 442.74C346.379 442.74 102.213 631.443 98.2031 672.047C91.0865 744.296 275.214 868.661 275.214 868.661C292.397 888.41 347.993 922.848 368.15 910.181" stroke="#231F20" stroke-width="20.4834" stroke-miterlimit="10" stroke-linecap="round"/>
<path id="Vector_11" d="M480.04 406.724C480.04 406.724 472.743 418.477 475.223 432.011C478.342 448.869 493.623 476.746 532.433 476.746C561.657 476.746 588.932 462.585 598.661 450.531C611.907 434.046 589.028 425.69 589.028 425.69" stroke="#231F20" stroke-width="20.4834" stroke-miterlimit="10" stroke-linecap="round"/>
<path id="Vector_12" d="M598.65 417.345C598.65 417.345 673.862 434.059 702.81 434.059C724.942 434.059 845.851 433.217 845.851 433.217" stroke="#231F20" stroke-width="20.4834" stroke-miterlimit="10" stroke-linecap="round"/>
<path id="Vector_13" d="M366.958 928.57C366.958 928.57 377.795 789.37 375.724 725.959C374.388 683.922 354.422 577.077 354.422 577.077" stroke="#231F20" stroke-width="20.4834" stroke-miterlimit="10" stroke-linecap="round"/>
<path id="Vector_14" d="M681.325 537.786L703.47 928.57" stroke="#231F20" stroke-width="20.4834" stroke-miterlimit="10" stroke-linecap="round"/>
<path id="Vector_15" d="M853.012 441.924L722.229 282.831C722.229 282.831 660.889 280.001 645.404 261.963C623.729 236.676 626.631 206.452 626.631 206.452C611.892 208.944 574.551 207.102 583.354 192.255C585.557 188.546 620.02 177.468 634.061 175.095C645.982 173.085 689.343 177.263 700.518 186.848C722.855 206.006 754.199 236.724 754.199 236.724C754.199 236.724 930.644 402.512 951.813 440.045C968.863 470.294 934.015 506.539 895.579 515.63C850.158 526.383 671.51 537.786 671.51 537.786" stroke="#231F20" stroke-width="20.4834" stroke-miterlimit="10" stroke-linecap="round"/>
<path id="Vector_16" d="M275.142 868.663L303.62 807.637" stroke="#231F20" stroke-width="20.4834" stroke-miterlimit="10" stroke-linecap="round"/>
<path id="Vector_17" d="M722.229 282.831C739.966 273.716 748.949 256.87 754.199 236.724" stroke="#231F20" stroke-width="20.4834" stroke-miterlimit="10" stroke-linecap="round"/>
</g>
</g>
</svg>
